<svg width="46" height="46" viewBox="0 0 46 46" fill="none" xmlns="http://www.w3.org/2000/svg">
<circle cx="23" cy="23" r="23" fill="#0047BB"/>
<rect x="24.5" y="9.5" width="11" height="27" fill="#0047BB" stroke="white"/>
<rect x="26" y="12" width="8" height="2" rx="1" fill="white"/>
<rect x="26" y="17" width="8" height="2" rx="1" fill="white"/>
<rect x="26" y="22" width="8" height="2" rx="1" fill="white"/>
<rect x="26" y="27" width="8" height="2" rx="1" fill="white"/>
<rect x="26" y="32" width="8" height="2" rx="1" fill="white"/>
<rect x="12.5" y="19.5" width="12" height="17" fill="#0047BB" stroke="white"/>
<rect x="14" y="22" width="9" height="2" rx="1" fill="white"/>
<rect x="14" y="27" width="9" height="2" rx="1" fill="white"/>
<rect x="16.5" y="32.5" width="4" height="4" fill="#0047BB" stroke="white"/>
<rect x="15.5" y="12.5" width="9" height="7" fill="#0047BB" stroke="white"/>
<rect x="17" y="15" width="6" height="2" rx="1" fill="white"/>
<rect x="17.5" y="5.5" width="7" height="7" fill="#0047BB" stroke="white"/>
<rect x="19" y="8" width="4" height="2" rx="1" fill="white"/>
</svg>
